<svg width="325" height="255" viewBox="0 0 325 255" fill="none" xmlns="http://www.w3.org/2000/svg">
<g clip-path="url(#clip0_4_10)">
<path d="M104.841 8.48111C126.297 1.87078 148.899 -0.78521 171.33 0.19901C198.503 1.4066 225.592 8.07276 249.656 20.8292C267.885 30.5039 284.452 43.7769 296.512 60.6168C304.701 72.0121 310.646 85.0687 313.369 98.8478C310.639 95.8707 306.492 95.0086 302.694 94.2862C299.607 83.2538 294.215 72.93 287.309 63.8138C274.665 47.1833 257.345 34.4966 238.509 25.6631C213.899 14.1456 186.541 8.93133 159.421 9.32921C137.829 9.64681 116.23 13.5488 96.0851 21.3807C83.2382 26.382 70.9823 32.9993 59.9922 41.3338C54.8066 41.4699 49.5301 40.8836 44.4459 42.1854C61.6007 26.4623 82.6578 15.3113 104.837 8.4846M170.677 23.733C174.502 22.131 178.719 21.2655 182.869 21.8134C184.366 22.131 186.062 22.7418 186.793 24.1972C187.422 25.5933 186.656 27.1184 185.705 28.148C184.366 29.5441 182.81 30.9157 180.866 31.3694C179.168 31.8115 177.606 32.6664 176.32 33.8579C167.862 41.2047 160.323 49.5182 152.773 57.7723C138.259 73.7537 124.482 90.3947 111.17 107.367C106.715 113.108 102.641 119.129 98.5258 125.111C91.8086 134.985 85.1964 144.939 78.9793 155.126C71.332 167.726 65.2093 181.138 58.2054 194.073C56.5865 196.973 55.1213 200.006 53.1002 202.645C49.6035 207.143 44.0508 209.66 38.4736 210.323C36.1168 210.532 33.5502 210.529 31.4487 209.276C29.7983 208.26 29.2353 206.222 29.1864 204.39C29.0535 197.273 30.12 190.213 31.0326 183.177C32.0502 174.765 33.1306 166.368 34.4559 157.995C37.9945 136.405 42.4983 114.986 46.3167 93.445C47.4566 87.3164 48.5161 81.1493 48.6909 74.9019C48.9042 70.9197 48.8692 66.6617 46.7642 63.1262C46.6348 62.9093 46.4311 62.7464 46.1908 62.6675C45.9505 62.5886 45.6897 62.5991 45.4565 62.6969C44.5299 62.9622 43.7361 63.5276 42.9389 64.0476C33.9594 70.2077 26.3261 78.4409 21.3818 88.1715C19.0949 92.6179 17.3745 97.4482 17.0354 102.481C16.913 105.095 17.5424 108.03 19.6964 109.734C20.8992 110.742 22.9483 110.882 23.4308 112.609C23.6861 114.414 21.8538 115.552 20.4691 116.288C16.9374 117.841 13.0037 118.906 9.12584 118.298C6.11519 117.796 3.15 116.18 1.57649 113.496C0.107882 111.035 -0.136889 108.069 0.0554295 105.27C0.471536 99.4795 2.56955 93.9476 5.30047 88.866C7.57332 84.7686 10.056 80.7654 13.0701 77.1636C16.7976 72.6264 21.074 68.5918 25.5183 64.7701C30.1864 60.8227 35.0853 57.0289 40.687 54.4916C46.0754 51.9892 51.9988 50.2022 57.9991 50.6908C61.265 50.9386 64.6183 51.7798 67.2269 53.8529C69.8949 55.9226 71.4649 59.1091 72.1502 62.3584C73.1153 67.0596 73.0314 71.8969 72.7307 76.668C71.6502 93.3369 68.6081 109.796 65.3387 126.158C63.5903 135.041 61.6601 143.888 59.7859 152.743C60.6636 151.587 61.1601 150.209 61.8839 148.956C66.9525 139.43 72.573 130.207 78.717 121.335C86.5321 110.697 94.3787 100.076 102.722 89.8432C111.065 79.6101 119.621 69.5097 128.541 59.7547C133.828 53.9925 139.154 48.2582 144.808 42.852C149.004 38.8907 153.141 34.8247 157.77 31.3555C161.791 28.3784 165.984 25.5374 170.68 23.726M206.416 40.4787C208.877 37.9476 212.2 36.4305 215.728 36.2277C218.906 36.0253 222.48 36.2731 224.987 38.4649C226.001 39.32 226.036 40.7928 225.686 41.976C224.081 47.0332 221.228 51.5494 218.564 56.0971C209.242 71.6038 200.091 87.2082 190.824 102.746C190.052 104.1 189.097 105.36 188.552 106.833C193.16 104.785 198.105 103.385 203.182 103.343C208.85 103.231 214.889 104.02 219.616 107.402C221.211 108.556 222.504 110.077 223.384 111.836C224.265 113.595 224.707 115.54 224.672 117.506C224.487 126.249 221.176 134.66 216.574 142C215.654 143.542 214.476 144.935 213.777 146.61C216.438 146.432 219.022 145.692 221.63 145.214C227.435 144.118 233.215 142.81 238.785 140.827C243.841 131.858 250.726 123.98 258.65 117.419C264.272 112.84 270.497 108.885 277.312 106.331C285.847 103.162 295.582 101.923 304.275 105.203C307.876 106.456 310.852 109.765 311.17 113.632C311.376 116.742 310.24 119.754 308.887 122.504C304.913 130.143 299.168 136.724 292.131 141.7C286.187 145.932 279.285 148.628 272.042 149.546C267.496 150.052 262.923 150.345 258.384 149.783C257.489 149.539 257.069 150.481 256.831 151.158C255.115 155.789 253.524 160.679 254.006 165.687C254.195 167.464 254.356 169.478 255.681 170.818C256.852 171.91 258.576 171.645 260.006 171.355C265.217 170.277 270.147 168.235 275.042 166.12C281.46 163.246 287.637 159.861 293.512 155.999C300.54 151.252 307.684 146.673 314.674 141.874C316.831 140.38 319.034 138.733 321.699 138.304C322.65 138.143 323.828 137.909 324.58 138.709C325.437 139.518 324.93 140.866 324.23 141.609C322.723 143.263 320.859 144.537 319.108 145.916C312.366 150.931 305.25 155.423 298.194 159.985C290.543 164.832 282.808 169.582 274.927 174.022C268.815 177.251 262.137 179.274 255.258 179.98C249.314 180.559 242.953 179.194 238.292 175.292C235.253 172.811 233.348 169.125 232.771 165.276C231.697 159.266 233.068 153.13 235.404 147.581C227.795 149.818 219.976 151.231 212.189 152.683C210.609 153.032 208.693 152.973 207.556 154.313C203.848 158.517 199.915 162.519 195.776 166.302C191.048 170.525 185.81 174.298 179.897 176.678C173.984 179.058 167.568 180.447 161.186 179.784C157.323 179.383 153.357 178.388 150.277 175.896C146.654 173.08 144.682 168.64 143.955 164.211C143.479 161.217 143.829 158.177 144.304 155.207C139.154 160.498 133.87 165.656 128.727 170.958C125.429 174.357 122.038 177.861 117.639 179.829C112.845 182.116 106.876 182.273 102.232 179.533C98.844 177.439 97.5572 173.278 97.5082 169.502C97.3614 166.937 98.2391 164.497 98.7461 162.023C100.624 155.116 102.432 148.108 105.739 141.721C108.537 136.433 111.285 131.111 114.541 126.085C117.8 121.067 121.451 116.313 125.461 111.869C126.692 110.373 128.246 109.173 130.006 108.358C133.559 106.659 137.801 105.936 141.567 107.381C143.053 107.933 144.846 108.76 145.102 110.522C145.305 112.445 144.402 114.278 143.556 115.939C140.059 121.844 136.398 127.645 132.692 133.418C130.545 136.74 129.017 140.398 127.066 143.836C124.342 148.788 121.279 153.566 118.943 158.725C116.758 163.37 115.069 168.281 114.289 173.383C114.289 173.489 114.317 173.593 114.371 173.684C114.425 173.775 114.503 173.85 114.595 173.901C114.688 173.953 114.793 173.978 114.899 173.976C115.005 173.973 115.108 173.942 115.198 173.886C120.873 169.998 125.671 165.021 130.482 160.145C135.587 155.008 140.647 149.825 145.738 144.673C146.273 144.08 146.993 143.598 147.315 142.848C150.997 132.049 156.501 122.005 161.973 112.034C165.703 105.332 169.58 98.7175 173.603 92.1886C177.534 85.7353 181.25 79.1564 185.142 72.6857C188.216 67.7192 191.262 62.7283 194.346 57.7688C198.101 51.8356 201.605 45.6825 206.388 40.4962M201.465 114.466C198.269 116.187 196.045 119.23 194.314 122.336C192.269 126.071 190.405 130.332 191.335 134.678C191.982 137.665 193.125 140.883 195.762 142.687C196.765 141.515 197.454 140.133 198.174 138.785C201.027 133.345 202.93 127.459 203.801 121.38C204.28 119.475 204.28 117.38 203.29 115.632C202.961 114.962 202.357 113.887 201.465 114.466ZM288.41 116.152C279.805 120.092 272.86 126.849 267.031 134.164C265.283 136.471 263.437 138.733 262.136 141.319C266.496 141.064 271.014 140.154 274.623 137.543C279.417 134.032 283.836 129.865 287.085 124.874C288.861 122.169 290.47 119.07 290.232 115.74C289.611 115.815 288.999 115.953 288.407 116.152M170.065 143.036C167.858 148.834 165.701 154.854 165.795 161.143C165.795 163.698 166.145 166.441 167.767 168.514C168.155 169.08 168.914 168.884 169.432 168.623C177.289 164.993 183.793 158.955 189.041 152.174C185.013 150.708 180.999 148.886 177.852 145.891C175.449 143.717 173.733 140.921 172.432 137.983C171.32 139.497 170.806 141.333 170.061 143.036M159.963 65.4088C163.246 64.4525 167.138 65.0877 169.607 67.5517C170.69 68.8884 169.82 70.6475 169.061 71.9144C167.04 75.6977 164.344 79.0482 162.012 82.6326C158.47 87.8189 155.518 93.452 151.224 98.0869C150.036 99.2561 148.364 99.6819 146.777 99.9926C145.459 100.23 144.107 100.205 142.799 99.9201C141.491 99.6351 140.252 99.0951 139.154 98.3312C138.147 97.6123 138.077 96.2895 138.143 95.1727C138.049 91.6825 139.514 88.3529 141.269 85.4003C144.544 79.5787 148.59 74.2243 153.298 69.4818C155.139 67.5832 157.432 66.1818 159.963 65.4088ZM10.3042 127.774C13.4233 127.697 16.5773 128.008 19.6649 127.404C20.6834 134.585 22.6444 141.601 25.4974 148.272C25.6687 148.69 25.875 149.134 25.7421 149.601C24.9309 154.645 24.1651 159.698 23.4833 164.763C16.6612 153.486 11.9931 140.859 10.3042 127.767M294.459 174.507C282.857 189.668 267.598 201.789 250.849 210.857C230.396 221.914 207.665 228.527 184.583 231.1C157.924 234.021 130.629 231.756 104.97 223.885C90.5029 219.493 76.6975 213.168 63.9295 205.081C65.5695 202.435 66.9856 199.664 68.4752 196.938C89.5148 210.483 113.876 218.483 138.654 221.568C164.547 224.734 191.143 222.758 216.137 215.213C235.243 209.45 253.422 200.31 268.885 187.64C272.951 186.335 276.99 184.824 280.71 182.691C285.331 180.027 289.914 177.299 294.459 174.507ZM131.706 187.421H135.902C135.902 190.662 135.902 193.904 135.902 197.148H141.682V187.421H145.923C145.923 195.332 145.923 203.242 145.923 211.153H141.682V201.147H135.902V211.153H131.706V187.421ZM154.113 187.421H158.63L164.473 211.153H160.092C159.77 209.72 159.453 208.286 159.141 206.85C157.291 206.85 155.445 206.85 153.599 206.85C153.284 208.286 152.968 209.719 152.651 211.15H148.259L154.102 187.417M154.452 202.84H158.281C157.487 199.406 156.83 195.947 156.351 192.457C155.898 195.947 155.264 199.412 154.452 202.836M166.9 187.41H171.096V207.15H178.548V211.164H166.904V187.421M180.89 187.421H185.086V207.161H192.538V211.174H180.89V187.421ZM187.586 242.945C189.153 241.71 191.947 242.746 191.943 244.861C192.02 247.622 188.964 248.868 188.188 251.29C189.461 251.328 190.734 251.311 192.01 251.315V252.941H186.468C186.492 251.929 186.415 250.847 186.901 249.932C187.625 248.316 189.226 247.336 190.048 245.793C190.454 245.095 190.069 243.954 189.136 244.048C188.471 244.128 188.363 244.812 188.139 245.311C187.597 245.311 187.059 245.311 186.524 245.311C186.712 244.467 186.835 243.493 187.573 242.942M200.161 243.64C201.049 242.244 203.108 242.108 204.458 242.861C205.472 243.43 205.713 244.648 205.899 245.699L204.108 245.723C204.021 244.701 203.059 243.713 202.01 244.369C201.073 245.444 201.661 247.053 201.489 248.358C201.573 249.36 201.14 251.084 202.486 251.391C203.472 251.611 203.958 250.693 204.143 249.898C204.745 249.898 205.346 249.898 205.951 249.918C205.755 250.913 205.542 252.061 204.601 252.648C203.203 253.51 200.909 253.346 200.056 251.793C199.384 250.529 199.706 249.042 199.629 247.678C199.692 246.331 199.391 244.851 200.147 243.64M112.404 242.673C113.044 242.673 113.687 242.673 114.331 242.673C114.81 244.174 115.296 245.678 115.768 247.182C116.202 245.679 116.639 244.175 117.079 242.669C117.716 242.669 118.352 242.669 118.992 242.669C118.195 245.254 117.4 247.842 116.607 250.431C116.348 251.206 116.072 252.054 115.394 252.571C114.715 253.087 113.855 252.976 113.083 253.07C113.083 252.543 113.083 252.023 113.083 251.503C114.065 251.555 114.722 250.969 114.999 250.076C114.121 247.611 113.275 245.137 112.415 242.669M120.016 242.669H125.471V252.906H123.649V244.383C123.02 244.383 122.394 244.383 121.772 244.383C121.562 246.774 121.67 249.241 120.985 251.566C120.653 252.693 119.45 253.042 118.411 253.171C118.411 252.637 118.411 252.124 118.411 251.58C118.831 251.276 119.373 251.007 119.432 250.431C119.912 247.88 119.852 245.266 120.016 242.683M133.321 252.92C133.321 249.5 133.321 246.08 133.321 242.662H139.385C139.385 246.083 139.385 249.502 139.385 252.92H137.559C137.559 250.079 137.559 247.24 137.559 244.404H135.14C135.14 247.245 135.14 250.085 135.14 252.923H133.314M141.266 242.662C143.014 242.788 145.112 242.202 146.511 243.518C147.714 244.84 147.735 247.109 146.644 248.505C145.773 249.552 144.308 249.507 143.07 249.521C143.07 250.651 143.07 251.782 143.07 252.916H141.266V242.662ZM143.095 244.366C143.095 245.529 143.095 246.685 143.095 247.835C143.832 247.734 144.843 247.954 145.305 247.221C145.476 246.878 145.568 246.501 145.573 246.117C145.578 245.734 145.496 245.355 145.332 245.008C144.885 244.212 143.846 244.449 143.095 244.366ZM149.738 242.68H151.696C152.543 246.093 153.378 249.505 154.204 252.916H152.315C152.179 252.292 152.046 251.674 151.913 251.056H149.553C149.415 251.673 149.28 252.294 149.147 252.92H147.249C148.083 249.507 148.918 246.094 149.752 242.683M149.927 249.315C150.462 249.315 151.001 249.315 151.543 249.315C151.193 247.849 150.927 246.372 150.728 244.886C150.536 246.372 150.256 247.845 149.927 249.311M155.134 242.68C156.532 242.764 158.036 242.443 159.396 242.931C161.145 243.779 161.249 246.32 160.057 247.692C161.805 248.899 161.508 251.932 159.505 252.697C158.106 253.126 156.581 252.833 155.134 252.913C155.134 249.504 155.134 246.093 155.134 242.68ZM156.955 244.341C156.955 245.207 156.955 246.076 156.955 246.948C157.886 247.039 159.179 246.812 159.005 245.587C159.134 244.397 157.819 244.299 156.955 244.341ZM156.955 248.571C156.955 249.46 156.955 250.352 156.955 251.248C157.531 251.242 158.105 251.191 158.672 251.095C159.7 250.697 159.547 248.823 158.41 248.69C157.928 248.624 157.442 248.585 156.955 248.571ZM163.599 242.68H168.89V251.217H169.753C169.753 252.355 169.753 253.495 169.753 254.637C169.152 254.637 168.551 254.637 167.956 254.637C167.956 254.061 167.956 253.492 167.956 252.927H163.41V254.637C162.809 254.637 162.215 254.637 161.617 254.637C161.617 253.538 161.617 252.442 161.617 251.346C162.865 251.161 163.078 249.758 163.295 248.746C163.561 246.732 163.505 244.69 163.61 242.669M165.302 244.373C165.18 246.666 165.386 249.056 164.456 251.217C165.337 251.217 166.222 251.217 167.11 251.217C167.11 248.934 167.11 246.654 167.11 244.376C166.505 244.376 165.9 244.376 165.302 244.376M170.897 242.673C171.509 242.673 172.124 242.673 172.74 242.673V246.61C174.03 246.61 175.624 246.708 176.299 248.006C177.058 249.531 176.915 252.075 175.037 252.704C173.691 253.053 172.271 252.847 170.893 252.899C170.893 249.49 170.893 246.079 170.893 242.666M172.736 248.327C172.736 249.329 172.736 250.337 172.736 251.346C173.729 251.398 175.03 250.997 174.81 249.744C174.925 248.543 173.638 248.296 172.712 248.327M177.719 252.916V242.68C178.324 242.68 178.932 242.68 179.544 242.68C179.544 246.089 179.544 249.501 179.544 252.916H177.719ZM194.503 242.676C195.08 242.676 195.657 242.676 196.251 242.676C195.645 244.77 195.039 246.865 194.433 248.959C195.01 248.959 195.59 248.959 196.181 248.959C196.262 247.873 196.339 246.788 196.423 245.706C196.905 245.706 197.384 245.706 197.874 245.706C197.874 246.791 197.874 247.873 197.874 248.962H198.961C198.961 249.489 198.961 250.009 198.961 250.55H197.881C197.881 251.335 197.881 252.128 197.881 252.92H196.164C196.164 252.129 196.164 251.339 196.164 250.55H192.489C192.814 247.852 193.867 245.315 194.52 242.683M206.696 242.666C208.371 242.666 210.046 242.666 211.721 242.666C211.822 244.212 210.672 245.367 209.972 246.641C210.888 246.962 211.721 247.65 211.843 248.676C211.937 249.884 212.049 251.262 211.294 252.302C210.455 253.307 208.885 253.349 207.755 252.878C206.706 252.41 206.458 251.199 206.266 250.194C206.822 250.173 207.385 250.163 207.951 250.156C208.172 250.683 208.301 251.527 209.084 251.465C210.353 251.513 210.21 249.898 210.133 249.053C210.133 247.852 208.706 248.062 207.902 247.974C207.846 246.533 208.885 245.448 209.535 244.261C208.584 244.261 207.633 244.261 206.685 244.261C206.685 243.723 206.685 243.193 206.685 242.662M127.185 251.416C128.157 250.404 129.688 252.068 128.583 252.934C127.629 253.81 126.262 252.306 127.185 251.416ZM181.177 251.287H182.855C182.537 252.484 182.293 253.702 181.911 254.885L180.894 255C180.96 253.758 181.072 252.522 181.177 251.287Z" fill="white"/>
</g>
<defs>
<clipPath id="clip0_4_10">
<rect width="325" height="255" fill="white"/>
</clipPath>
</defs>
</svg>
